<mxfile host="app.diagrams.net" modified="2023-02-14T13:13:47.440Z" agent="5.0 (Windows NT 10.0; Win64; x64) AppleWebKit/537.36 (KHTML, like Gecko) Chrome/104.0.0.0 Safari/537.36" etag="G4Z6WwzfdXi3NfujlyM8" version="20.8.20" type="github">
  <diagram name="第 1 页" id="xmbw7qQmN4ud8pM5Gb9d">
    <mxGraphModel dx="989" dy="549" grid="1" gridSize="10" guides="1" tooltips="1" connect="1" arrows="1" fold="1" page="1" pageScale="1" pageWidth="827" pageHeight="1169" math="0" shadow="0">
      <root>
        <mxCell id="0" />
        <mxCell id="1" parent="0" />
        <mxCell id="zITz0jIqfDhIaU5DNYhB-19" style="edgeStyle=orthogonalEdgeStyle;rounded=0;orthogonalLoop=1;jettySize=auto;html=1;entryX=0.5;entryY=0;entryDx=0;entryDy=0;" edge="1" parent="1" source="zITz0jIqfDhIaU5DNYhB-1" target="zITz0jIqfDhIaU5DNYhB-3">
          <mxGeometry relative="1" as="geometry" />
        </mxCell>
        <mxCell id="zITz0jIqfDhIaU5DNYhB-20" style="edgeStyle=orthogonalEdgeStyle;rounded=0;orthogonalLoop=1;jettySize=auto;html=1;" edge="1" parent="1" source="zITz0jIqfDhIaU5DNYhB-1" target="zITz0jIqfDhIaU5DNYhB-2">
          <mxGeometry relative="1" as="geometry" />
        </mxCell>
        <mxCell id="zITz0jIqfDhIaU5DNYhB-21" style="edgeStyle=orthogonalEdgeStyle;rounded=0;orthogonalLoop=1;jettySize=auto;html=1;" edge="1" parent="1" source="zITz0jIqfDhIaU5DNYhB-1" target="zITz0jIqfDhIaU5DNYhB-4">
          <mxGeometry relative="1" as="geometry" />
        </mxCell>
        <mxCell id="zITz0jIqfDhIaU5DNYhB-1" value="开始" style="rounded=1;whiteSpace=wrap;html=1;fontSize=12;glass=0;strokeWidth=1;shadow=0;" vertex="1" parent="1">
          <mxGeometry x="325" y="30" width="80" height="30" as="geometry" />
        </mxCell>
        <mxCell id="zITz0jIqfDhIaU5DNYhB-27" style="edgeStyle=orthogonalEdgeStyle;rounded=0;orthogonalLoop=1;jettySize=auto;html=1;entryX=0.5;entryY=0;entryDx=0;entryDy=0;" edge="1" parent="1" source="zITz0jIqfDhIaU5DNYhB-2" target="zITz0jIqfDhIaU5DNYhB-5">
          <mxGeometry relative="1" as="geometry" />
        </mxCell>
        <mxCell id="zITz0jIqfDhIaU5DNYhB-2" value="在网页端发送快照播放GM指令" style="rounded=0;whiteSpace=wrap;html=1;" vertex="1" parent="1">
          <mxGeometry x="115" y="90" width="110" height="40" as="geometry" />
        </mxCell>
        <mxCell id="zITz0jIqfDhIaU5DNYhB-24" style="edgeStyle=orthogonalEdgeStyle;rounded=0;orthogonalLoop=1;jettySize=auto;html=1;" edge="1" parent="1" source="zITz0jIqfDhIaU5DNYhB-3" target="zITz0jIqfDhIaU5DNYhB-14">
          <mxGeometry relative="1" as="geometry" />
        </mxCell>
        <mxCell id="zITz0jIqfDhIaU5DNYhB-3" value="在客户端执行快照播放GM指令" style="rounded=0;whiteSpace=wrap;html=1;" vertex="1" parent="1">
          <mxGeometry x="310" y="110" width="110" height="40" as="geometry" />
        </mxCell>
        <mxCell id="zITz0jIqfDhIaU5DNYhB-22" style="edgeStyle=orthogonalEdgeStyle;rounded=0;orthogonalLoop=1;jettySize=auto;html=1;" edge="1" parent="1" source="zITz0jIqfDhIaU5DNYhB-4" target="zITz0jIqfDhIaU5DNYhB-15">
          <mxGeometry relative="1" as="geometry" />
        </mxCell>
        <mxCell id="zITz0jIqfDhIaU5DNYhB-23" style="edgeStyle=orthogonalEdgeStyle;rounded=0;orthogonalLoop=1;jettySize=auto;html=1;entryX=0.5;entryY=0;entryDx=0;entryDy=0;" edge="1" parent="1" source="zITz0jIqfDhIaU5DNYhB-4" target="zITz0jIqfDhIaU5DNYhB-16">
          <mxGeometry relative="1" as="geometry" />
        </mxCell>
        <mxCell id="zITz0jIqfDhIaU5DNYhB-4" value="在自动化流水线执行快照播放GM指令" style="rounded=0;whiteSpace=wrap;html=1;" vertex="1" parent="1">
          <mxGeometry x="510" y="90" width="110" height="40" as="geometry" />
        </mxCell>
        <mxCell id="zITz0jIqfDhIaU5DNYhB-28" style="edgeStyle=orthogonalEdgeStyle;rounded=0;orthogonalLoop=1;jettySize=auto;html=1;" edge="1" parent="1" source="zITz0jIqfDhIaU5DNYhB-5" target="zITz0jIqfDhIaU5DNYhB-6">
          <mxGeometry relative="1" as="geometry" />
        </mxCell>
        <mxCell id="zITz0jIqfDhIaU5DNYhB-5" value="输入服务器id、uid等GM参数" style="rounded=0;whiteSpace=wrap;html=1;" vertex="1" parent="1">
          <mxGeometry x="122.5" y="170" width="95" height="30" as="geometry" />
        </mxCell>
        <mxCell id="zITz0jIqfDhIaU5DNYhB-29" style="edgeStyle=orthogonalEdgeStyle;rounded=0;orthogonalLoop=1;jettySize=auto;html=1;" edge="1" parent="1" source="zITz0jIqfDhIaU5DNYhB-6" target="zITz0jIqfDhIaU5DNYhB-8">
          <mxGeometry relative="1" as="geometry" />
        </mxCell>
        <mxCell id="zITz0jIqfDhIaU5DNYhB-30" style="edgeStyle=orthogonalEdgeStyle;rounded=0;orthogonalLoop=1;jettySize=auto;html=1;entryX=0;entryY=0.5;entryDx=0;entryDy=0;" edge="1" parent="1" source="zITz0jIqfDhIaU5DNYhB-6" target="zITz0jIqfDhIaU5DNYhB-5">
          <mxGeometry relative="1" as="geometry">
            <Array as="points">
              <mxPoint x="103" y="270" />
              <mxPoint x="103" y="185" />
            </Array>
          </mxGeometry>
        </mxCell>
        <mxCell id="zITz0jIqfDhIaU5DNYhB-6" value="是否合法" style="rhombus;whiteSpace=wrap;html=1;" vertex="1" parent="1">
          <mxGeometry x="130" y="240" width="80" height="60" as="geometry" />
        </mxCell>
        <mxCell id="zITz0jIqfDhIaU5DNYhB-31" style="edgeStyle=orthogonalEdgeStyle;rounded=0;orthogonalLoop=1;jettySize=auto;html=1;" edge="1" parent="1" source="zITz0jIqfDhIaU5DNYhB-8" target="zITz0jIqfDhIaU5DNYhB-9">
          <mxGeometry relative="1" as="geometry" />
        </mxCell>
        <mxCell id="zITz0jIqfDhIaU5DNYhB-8" value="表单提交信息发送至后端处理" style="rounded=0;whiteSpace=wrap;html=1;" vertex="1" parent="1">
          <mxGeometry x="122.5" y="330" width="95" height="30" as="geometry" />
        </mxCell>
        <mxCell id="zITz0jIqfDhIaU5DNYhB-32" style="edgeStyle=orthogonalEdgeStyle;rounded=0;orthogonalLoop=1;jettySize=auto;html=1;" edge="1" parent="1" source="zITz0jIqfDhIaU5DNYhB-9" target="zITz0jIqfDhIaU5DNYhB-10">
          <mxGeometry relative="1" as="geometry" />
        </mxCell>
        <mxCell id="zITz0jIqfDhIaU5DNYhB-9" value="向DirServer请求服务器id对应的i地址与端口" style="rounded=0;whiteSpace=wrap;html=1;" vertex="1" parent="1">
          <mxGeometry x="106.25" y="400" width="127.5" height="40" as="geometry" />
        </mxCell>
        <mxCell id="zITz0jIqfDhIaU5DNYhB-33" style="edgeStyle=orthogonalEdgeStyle;rounded=0;orthogonalLoop=1;jettySize=auto;html=1;" edge="1" parent="1" source="zITz0jIqfDhIaU5DNYhB-10" target="zITz0jIqfDhIaU5DNYhB-12">
          <mxGeometry relative="1" as="geometry">
            <Array as="points">
              <mxPoint x="280" y="490" />
              <mxPoint x="280" y="410" />
            </Array>
          </mxGeometry>
        </mxCell>
        <mxCell id="zITz0jIqfDhIaU5DNYhB-10" value="将获取表单信息从新封装为url，通过htt 发送" style="rounded=0;whiteSpace=wrap;html=1;" vertex="1" parent="1">
          <mxGeometry x="106.25" y="470" width="127.5" height="40" as="geometry" />
        </mxCell>
        <mxCell id="zITz0jIqfDhIaU5DNYhB-34" style="edgeStyle=orthogonalEdgeStyle;rounded=0;orthogonalLoop=1;jettySize=auto;html=1;entryX=0.5;entryY=0;entryDx=0;entryDy=0;" edge="1" parent="1" source="zITz0jIqfDhIaU5DNYhB-12" target="zITz0jIqfDhIaU5DNYhB-17">
          <mxGeometry relative="1" as="geometry" />
        </mxCell>
        <mxCell id="zITz0jIqfDhIaU5DNYhB-12" value="GameServer中GmHandler进行处理" style="rounded=0;whiteSpace=wrap;html=1;" vertex="1" parent="1">
          <mxGeometry x="306.25" y="390" width="117.5" height="40" as="geometry" />
        </mxCell>
        <mxCell id="zITz0jIqfDhIaU5DNYhB-36" style="edgeStyle=orthogonalEdgeStyle;rounded=0;orthogonalLoop=1;jettySize=auto;html=1;exitX=0.5;exitY=1;exitDx=0;exitDy=0;" edge="1" parent="1" source="zITz0jIqfDhIaU5DNYhB-13" target="zITz0jIqfDhIaU5DNYhB-12">
          <mxGeometry relative="1" as="geometry" />
        </mxCell>
        <mxCell id="zITz0jIqfDhIaU5DNYhB-13" value="客户端向服务器发送GM消息" style="rounded=0;whiteSpace=wrap;html=1;" vertex="1" parent="1">
          <mxGeometry x="310" y="310" width="110" height="40" as="geometry" />
        </mxCell>
        <mxCell id="zITz0jIqfDhIaU5DNYhB-25" style="edgeStyle=orthogonalEdgeStyle;rounded=0;orthogonalLoop=1;jettySize=auto;html=1;entryX=0;entryY=0.5;entryDx=0;entryDy=0;" edge="1" parent="1" source="zITz0jIqfDhIaU5DNYhB-14" target="zITz0jIqfDhIaU5DNYhB-3">
          <mxGeometry relative="1" as="geometry">
            <Array as="points">
              <mxPoint x="290" y="220" />
              <mxPoint x="290" y="130" />
            </Array>
          </mxGeometry>
        </mxCell>
        <mxCell id="zITz0jIqfDhIaU5DNYhB-26" style="edgeStyle=orthogonalEdgeStyle;rounded=0;orthogonalLoop=1;jettySize=auto;html=1;entryX=0.5;entryY=0;entryDx=0;entryDy=0;" edge="1" parent="1" source="zITz0jIqfDhIaU5DNYhB-14" target="zITz0jIqfDhIaU5DNYhB-13">
          <mxGeometry relative="1" as="geometry" />
        </mxCell>
        <mxCell id="zITz0jIqfDhIaU5DNYhB-14" value="是否合法" style="rhombus;whiteSpace=wrap;html=1;" vertex="1" parent="1">
          <mxGeometry x="325" y="190" width="80" height="60" as="geometry" />
        </mxCell>
        <mxCell id="zITz0jIqfDhIaU5DNYhB-37" style="edgeStyle=orthogonalEdgeStyle;rounded=0;orthogonalLoop=1;jettySize=auto;html=1;entryX=1;entryY=0.5;entryDx=0;entryDy=0;" edge="1" parent="1" source="zITz0jIqfDhIaU5DNYhB-15" target="zITz0jIqfDhIaU5DNYhB-17">
          <mxGeometry relative="1" as="geometry">
            <Array as="points">
              <mxPoint x="505" y="490" />
            </Array>
          </mxGeometry>
        </mxCell>
        <mxCell id="zITz0jIqfDhIaU5DNYhB-15" value="定时自动执行" style="rounded=0;whiteSpace=wrap;html=1;" vertex="1" parent="1">
          <mxGeometry x="450" y="190" width="110" height="40" as="geometry" />
        </mxCell>
        <mxCell id="zITz0jIqfDhIaU5DNYhB-38" style="edgeStyle=orthogonalEdgeStyle;rounded=0;orthogonalLoop=1;jettySize=auto;html=1;entryX=1;entryY=0.5;entryDx=0;entryDy=0;" edge="1" parent="1" source="zITz0jIqfDhIaU5DNYhB-16" target="zITz0jIqfDhIaU5DNYhB-17">
          <mxGeometry relative="1" as="geometry">
            <Array as="points">
              <mxPoint x="655" y="490" />
            </Array>
          </mxGeometry>
        </mxCell>
        <mxCell id="zITz0jIqfDhIaU5DNYhB-16" value="用户手动执行" style="rounded=0;whiteSpace=wrap;html=1;" vertex="1" parent="1">
          <mxGeometry x="600" y="190" width="110" height="40" as="geometry" />
        </mxCell>
        <mxCell id="zITz0jIqfDhIaU5DNYhB-35" style="edgeStyle=orthogonalEdgeStyle;rounded=0;orthogonalLoop=1;jettySize=auto;html=1;entryX=0.5;entryY=0;entryDx=0;entryDy=0;" edge="1" parent="1" source="zITz0jIqfDhIaU5DNYhB-17" target="zITz0jIqfDhIaU5DNYhB-18">
          <mxGeometry relative="1" as="geometry" />
        </mxCell>
        <mxCell id="zITz0jIqfDhIaU5DNYhB-17" value="触发自动播放脚本" style="rounded=0;whiteSpace=wrap;html=1;" vertex="1" parent="1">
          <mxGeometry x="310" y="470" width="110" height="40" as="geometry" />
        </mxCell>
        <mxCell id="zITz0jIqfDhIaU5DNYhB-18" value="结束" style="rounded=1;whiteSpace=wrap;html=1;fontSize=12;glass=0;strokeWidth=1;shadow=0;" vertex="1" parent="1">
          <mxGeometry x="325" y="550" width="80" height="30" as="geometry" />
        </mxCell>
        <mxCell id="zITz0jIqfDhIaU5DNYhB-39" value="是" style="text;strokeColor=none;fillColor=none;align=left;verticalAlign=middle;spacingLeft=4;spacingRight=4;overflow=hidden;points=[[0,0.5],[1,0.5]];portConstraint=eastwest;rotatable=0;whiteSpace=wrap;html=1;" vertex="1" parent="1">
          <mxGeometry x="180" y="290" width="80" height="30" as="geometry" />
        </mxCell>
        <mxCell id="zITz0jIqfDhIaU5DNYhB-40" value="是" style="text;strokeColor=none;fillColor=none;align=left;verticalAlign=middle;spacingLeft=4;spacingRight=4;overflow=hidden;points=[[0,0.5],[1,0.5]];portConstraint=eastwest;rotatable=0;whiteSpace=wrap;html=1;" vertex="1" parent="1">
          <mxGeometry x="370" y="250" width="80" height="30" as="geometry" />
        </mxCell>
        <mxCell id="zITz0jIqfDhIaU5DNYhB-41" value="否" style="text;strokeColor=none;fillColor=none;align=left;verticalAlign=middle;spacingLeft=4;spacingRight=4;overflow=hidden;points=[[0,0.5],[1,0.5]];portConstraint=eastwest;rotatable=0;whiteSpace=wrap;html=1;" vertex="1" parent="1">
          <mxGeometry x="106.25" y="240" width="80" height="30" as="geometry" />
        </mxCell>
        <mxCell id="zITz0jIqfDhIaU5DNYhB-42" value="否" style="text;strokeColor=none;fillColor=none;align=left;verticalAlign=middle;spacingLeft=4;spacingRight=4;overflow=hidden;points=[[0,0.5],[1,0.5]];portConstraint=eastwest;rotatable=0;whiteSpace=wrap;html=1;" vertex="1" parent="1">
          <mxGeometry x="300" y="190" width="80" height="30" as="geometry" />
        </mxCell>
      </root>
    </mxGraphModel>
  </diagram>
</mxfile>
